<svg width="26" height="26" viewBox="0 0 26 26" fill="none" xmlns="http://www.w3.org/2000/svg">
<path d="M13 26C5.82032 26 0 20.1797 0 13C0 5.82032 5.82032 0 13 0C20.1797 0 26 5.82032 26 13C25.9919 20.1763 20.1763 25.9919 13 26ZM13 0.866667C6.29893 0.866667 0.866667 6.29893 0.866667 13C0.866667 19.7011 6.29893 25.1333 13 25.1333C19.7011 25.1333 25.1333 19.7011 25.1333 13C25.1257 6.30213 19.6979 0.874304 13 0.866667Z" fill="white"/>
<path d="M19.4998 13.4336H9.09984C8.86053 13.4336 8.6665 13.2395 8.6665 13.0002C8.6665 12.7609 8.86053 12.5669 9.09984 12.5669H19.4998C19.7391 12.5669 19.9332 12.7609 19.9332 13.0002C19.9332 13.2395 19.7391 13.4336 19.4998 13.4336Z" fill="white"/>
<path d="M19.4998 17.7666H9.09984C8.86053 17.7666 8.6665 17.5725 8.6665 17.3332C8.6665 17.0939 8.86053 16.8999 9.09984 16.8999H19.4998C19.7391 16.8999 19.9332 17.0939 19.9332 17.3332C19.9332 17.5725 19.7391 17.7666 19.4998 17.7666Z" fill="white"/>
<path d="M19.4998 9.10007H9.09984C8.86053 9.10007 8.6665 8.90604 8.6665 8.66673C8.6665 8.42742 8.86053 8.2334 9.09984 8.2334H19.4998C19.7391 8.2334 19.9332 8.42742 19.9332 8.66673C19.9332 8.90604 19.7391 9.10007 19.4998 9.10007Z" fill="white"/>
<path d="M7.36689 9.10007H6.50023C6.26092 9.10007 6.06689 8.90604 6.06689 8.66673C6.06689 8.42742 6.26092 8.2334 6.50023 8.2334H7.36689C7.6062 8.2334 7.80023 8.42742 7.80023 8.66673C7.80023 8.90604 7.6062 9.10007 7.36689 9.10007Z" fill="#E31F25"/>
<path d="M7.36689 13.4336H6.50023C6.26092 13.4336 6.06689 13.2395 6.06689 13.0002C6.06689 12.7609 6.26092 12.5669 6.50023 12.5669H7.36689C7.6062 12.5669 7.80023 12.7609 7.80023 13.0002C7.80023 13.2395 7.6062 13.4336 7.36689 13.4336Z" fill="#E31F25"/>
<path d="M7.36689 17.7666H6.50023C6.26092 17.7666 6.06689 17.5725 6.06689 17.3332C6.06689 17.0939 6.26092 16.8999 6.50023 16.8999H7.36689C7.6062 16.8999 7.80023 17.0939 7.80023 17.3332C7.80023 17.5725 7.6062 17.7666 7.36689 17.7666Z" fill="#E31F25"/>
</svg>
