<svg :class="[isOpen ? 'block' : 'hidden', 'h-6 w-6']" viewBox="0 0 26 26" fill="none" xmlns="http://www.w3.org/2000/svg">
<path d="M13 26C5.82032 26 0 20.1797 0 13C0 5.82032 5.82032 0 13 0C20.1797 0 26 5.82032 26 13C25.9919 20.1763 20.1763 25.9919 13 26ZM13 0.866667C6.29893 0.866667 0.866667 6.29893 0.866667 13C0.866667 19.7011 6.29893 25.1333 13 25.1333C19.7011 25.1333 25.1333 19.7011 25.1333 13C25.1257 6.30213 19.6979 0.874304 13 0.866667Z" fill="#E31F25"/>
<path d="M7 7L19 19M7 19L19 7L7 19Z" stroke="white" stroke-width="2" stroke-linecap="round" stroke-linejoin="round"/>
</svg>
